<svg width="24" height="24" viewBox="0 0 24 24" fill="none" xmlns="http://www.w3.org/2000/svg">
<path d="M10.5 17.25C10.3247 17.2503 10.1549 17.1893 10.02 17.0775C9.94403 17.0145 9.88126 16.9372 9.83524 16.8499C9.78923 16.7626 9.76088 16.6672 9.75182 16.5689C9.74277 16.4707 9.75318 16.3716 9.78246 16.2774C9.81175 16.1832 9.85933 16.0957 9.92248 16.02L13.2825 12L10.0425 7.97246C9.98018 7.89574 9.93365 7.80747 9.90558 7.71271C9.87751 7.61796 9.86844 7.51859 9.87889 7.42032C9.88935 7.32205 9.91912 7.22681 9.9665 7.14008C10.0139 7.05336 10.0779 6.97685 10.155 6.91496C10.2326 6.84668 10.3235 6.79518 10.4219 6.76369C10.5203 6.73219 10.6242 6.72139 10.7271 6.73195C10.8299 6.74252 10.9294 6.77422 11.0194 6.82507C11.1094 6.87592 11.1879 6.94483 11.25 7.02746L14.8725 11.5275C14.9828 11.6617 15.0431 11.83 15.0431 12.0037C15.0431 12.1774 14.9828 12.3458 14.8725 12.48L11.1225 16.98C11.0472 17.0707 10.9517 17.1425 10.8435 17.1894C10.7353 17.2363 10.6177 17.257 10.5 17.25Z" fill="white"/>
</svg>
