<svg width="135" height="24" viewBox="0 0 135 24" fill="none" xmlns="http://www.w3.org/2000/svg">
<path d="M121.5 17.25C121.325 17.2503 121.155 17.1893 121.02 17.0775C120.944 17.0145 120.881 16.9372 120.835 16.8499C120.789 16.7626 120.761 16.6672 120.752 16.5689C120.743 16.4707 120.753 16.3716 120.782 16.2774C120.812 16.1832 120.859 16.0957 120.922 16.02L124.282 12L121.042 7.97246C120.98 7.89574 120.934 7.80747 120.906 7.71271C120.878 7.61796 120.868 7.51859 120.879 7.42032C120.889 7.32205 120.919 7.22681 120.966 7.14008C121.014 7.05336 121.078 6.97685 121.155 6.91496C121.233 6.84668 121.323 6.79518 121.422 6.76369C121.52 6.73219 121.624 6.72139 121.727 6.73195C121.83 6.74252 121.929 6.77422 122.019 6.82507C122.109 6.87592 122.188 6.94483 122.25 7.02746L125.872 11.5275C125.983 11.6617 126.043 11.83 126.043 12.0037C126.043 12.1774 125.983 12.3458 125.872 12.48L122.122 16.98C122.047 17.0707 121.952 17.1425 121.844 17.1894C121.735 17.2363 121.618 17.257 121.5 17.25Z" fill="white"/>
<circle cx="51" cy="12" r="4" fill="white"/>
<circle cx="67" cy="12" r="3.5" stroke="white"/>
<circle cx="83" cy="12" r="3.5" stroke="white"/>
<path d="M13.5 17.25C13.6753 17.2503 13.8451 17.1893 13.98 17.0775C14.056 17.0145 14.1187 16.9372 14.1648 16.8499C14.2108 16.7626 14.2391 16.6672 14.2482 16.5689C14.2572 16.4707 14.2468 16.3716 14.2175 16.2774C14.1883 16.1832 14.1407 16.0957 14.0775 16.02L10.7175 12L13.9575 7.97246C14.0198 7.89574 14.0663 7.80747 14.0944 7.71271C14.1225 7.61796 14.1316 7.51859 14.1211 7.42032C14.1107 7.32205 14.0809 7.22681 14.0335 7.14008C13.9861 7.05336 13.9221 6.97685 13.845 6.91496C13.7674 6.84668 13.6765 6.79518 13.5781 6.76369C13.4797 6.73219 13.3758 6.72139 13.2729 6.73195C13.1701 6.74252 13.0706 6.77422 12.9806 6.82507C12.8906 6.87592 12.8121 6.94483 12.75 7.02746L9.12752 11.5275C9.01721 11.6617 8.95691 11.83 8.95691 12.0037C8.95691 12.1774 9.01721 12.3458 9.12752 12.48L12.8775 16.98C12.9528 17.0707 13.0483 17.1425 13.1565 17.1894C13.2647 17.2363 13.3823 17.257 13.5 17.25Z" fill="white"/>
</svg>
