<svg width="15" height="8" viewBox="0 0 15 8" fill="none" xmlns="http://www.w3.org/2000/svg">
<path d="M6.00377e-05 1.50005C-0.000396762 1.2664 0.0809784 1.03996 0.23006 0.86005C0.314009 0.758792 0.41711 0.67509 0.533458 0.613738C0.649805 0.552386 0.777111 0.51459 0.908088 0.502514C1.03906 0.490438 1.17114 0.50432 1.29674 0.543365C1.42234 0.582409 1.53901 0.645848 1.64006 0.73005L7.00006 5.21005L12.3701 0.890051C12.4723 0.806985 12.59 0.744954 12.7164 0.707522C12.8427 0.67009 12.9752 0.657996 13.1062 0.671936C13.2373 0.685875 13.3643 0.725572 13.4799 0.788745C13.5955 0.851919 13.6975 0.937324 13.7801 1.04005C13.8711 1.14352 13.9398 1.26468 13.9818 1.39595C14.0237 1.52721 14.0381 1.66573 14.0241 1.80283C14.01 1.93992 13.9677 2.07262 13.8999 2.1926C13.8321 2.31259 13.7402 2.41726 13.6301 2.50005L7.63006 7.33005C7.45113 7.47713 7.22668 7.55754 6.99506 7.55754C6.76343 7.55754 6.53899 7.47713 6.36006 7.33005L0.360061 2.33005C0.239043 2.22973 0.143379 2.1023 0.0808305 1.95809C0.0182819 1.81388 -0.00939088 1.65696 6.00377e-05 1.50005Z" fill="#BB0B00"/>
</svg>
