<svg width="16" height="9" viewBox="0 0 16 9" fill="none" xmlns="http://www.w3.org/2000/svg">
<path d="M0.986388 1.97222C0.985932 1.73857 1.06731 1.51213 1.21639 1.33222C1.30034 1.23096 1.40344 1.14726 1.51979 1.08591C1.63613 1.02455 1.76344 0.986758 1.89442 0.974682C2.02539 0.962606 2.15746 0.976488 2.28307 1.01553C2.40867 1.05458 2.52534 1.11802 2.62639 1.20222L7.98639 5.68222L13.3564 1.36222C13.4587 1.27915 13.5764 1.21712 13.7027 1.17969C13.8291 1.14226 13.9615 1.13016 14.0926 1.1441C14.2236 1.15804 14.3506 1.19774 14.4662 1.26091C14.5819 1.32409 14.6839 1.40949 14.7664 1.51222C14.8574 1.61568 14.9261 1.73685 14.9681 1.86811C15.0101 1.99938 15.0245 2.1379 15.0104 2.27499C14.9963 2.41209 14.954 2.54479 14.8862 2.66477C14.8184 2.78475 14.7266 2.88943 14.6164 2.97222L8.61639 7.80222C8.43745 7.9493 8.21301 8.02971 7.98139 8.02971C7.74976 8.02971 7.52532 7.9493 7.34639 7.80222L1.34639 2.80222C1.22537 2.7019 1.12971 2.57447 1.06716 2.43026C1.00461 2.28605 0.976937 2.12912 0.986388 1.97222Z" fill="white"/>
</svg>
