<svg width="18" height="23" viewBox="0 0 18 23" fill="none" xmlns="http://www.w3.org/2000/svg">
<path fill-rule="evenodd" clip-rule="evenodd" d="M6.22953 2.51001C6.22953 2.45001 6.25953 2.34001 6.40953 2.22001C6.55953 2.10001 6.80953 2.01001 7.11953 2.01001H11.3395C11.6395 2.01001 11.8895 2.10001 12.0395 2.22001C12.1995 2.34001 12.2295 2.45001 12.2295 2.51001V3.25001H6.22953V2.51001ZM4.72953 3.25001V2.51001C4.72953 1.88001 5.05953 1.37001 5.49953 1.03001C5.93953 0.690009 6.50953 0.51001 7.11953 0.51001H11.3395C11.9395 0.51001 12.5095 0.700009 12.9495 1.03001C13.3895 1.36001 13.7295 1.88001 13.7295 2.51001V3.25001H17.1895C17.5995 3.25001 17.9395 3.59001 17.9395 4.00001C17.9395 4.41001 17.5995 4.75001 17.1895 4.75001H16.3895V22.12C16.3895 22.53 16.0495 22.87 15.6395 22.87H2.81953C2.40953 22.87 2.06953 22.53 2.06953 22.12V4.75001H1.26953C0.859531 4.75001 0.519531 4.41001 0.519531 4.00001C0.519531 3.59001 0.859531 3.25001 1.26953 3.25001H4.72953ZM3.56953 4.75001V21.37H14.8895V4.75001H3.56953ZM9.22953 5.53001C9.63953 5.53001 9.97953 5.87001 9.97953 6.28001V19.84C9.97953 20.25 9.63953 20.59 9.22953 20.59C8.81953 20.59 8.47953 20.25 8.47953 19.84V6.28001C8.47953 5.87001 8.81953 5.53001 9.22953 5.53001ZM12.9295 6.28001C12.9295 5.87001 12.5895 5.53001 12.1795 5.53001C11.7695 5.53001 11.4295 5.87001 11.4295 6.28001V19.84C11.4295 20.25 11.7695 20.59 12.1795 20.59C12.5895 20.59 12.9295 20.25 12.9295 19.84V6.28001ZM6.27953 5.53001C6.68953 5.53001 7.02953 5.87001 7.02953 6.28001V19.84C7.02953 20.25 6.68953 20.59 6.27953 20.59C5.86953 20.59 5.52953 20.25 5.52953 19.84V6.28001C5.52953 5.87001 5.86953 5.53001 6.27953 5.53001Z" fill="#BB0B00"/>
</svg>
