<svg width="17" height="16" viewBox="0 0 17 16" fill="none" xmlns="http://www.w3.org/2000/svg">
<rect x="0.994141" width="16" height="16" rx="8" fill="#008ACF"/>
<path d="M9.93323 7.99943L12.7971 5.14179C12.9225 5.01635 12.993 4.84623 12.993 4.66884C12.993 4.49146 12.9225 4.32133 12.7971 4.1959C12.6717 4.07047 12.5016 4 12.3243 4C12.1469 4 11.9768 4.07047 11.8514 4.1959L8.99414 7.06021L6.1369 4.1959C6.01149 4.07047 5.84139 4 5.66403 4C5.48666 4 5.31656 4.07047 5.19115 4.1959C5.06573 4.32133 4.99528 4.49146 4.99528 4.66884C4.99528 4.84623 5.06573 5.01635 5.19115 5.14179L8.05505 7.99943L5.19115 10.8571C5.12872 10.919 5.07918 10.9927 5.04536 11.0738C5.01155 11.155 4.99414 11.2421 4.99414 11.33C4.99414 11.418 5.01155 11.505 5.04536 11.5862C5.07918 11.6674 5.12872 11.741 5.19115 11.803C5.25306 11.8654 5.32673 11.915 5.40789 11.9488C5.48905 11.9826 5.5761 12 5.66403 12C5.75195 12 5.839 11.9826 5.92016 11.9488C6.00132 11.915 6.07499 11.8654 6.1369 11.803L8.99414 8.93866L11.8514 11.803C11.9133 11.8654 11.987 11.915 12.0681 11.9488C12.1493 11.9826 12.2363 12 12.3243 12C12.4122 12 12.4992 11.9826 12.5804 11.9488C12.6616 11.915 12.7352 11.8654 12.7971 11.803C12.8596 11.741 12.9091 11.6674 12.9429 11.5862C12.9767 11.505 12.9941 11.418 12.9941 11.33C12.9941 11.2421 12.9767 11.155 12.9429 11.0738C12.9091 10.9927 12.8596 10.919 12.7971 10.8571L9.93323 7.99943Z" fill="white"/>
</svg>
