<svg width="125" height="32" viewBox="0 0 125 32" fill="none" xmlns="http://www.w3.org/2000/svg">
<g clip-path="url(#clip0_240_3428)">
<path d="M15.772 17.513C14.985 16.8508 13.8758 16.2194 12.2289 15.8031C10.4699 15.3588 9.22906 15.1996 8.57924 14.61C7.50648 13.6377 7.90982 12.1736 9.24866 11.327C9.87887 10.9275 11.2289 10.595 12.3437 10.6033C15.3911 10.6201 16.828 11.1175 16.828 11.1175L17.2173 8.91015C16.8756 8.7481 16.181 8.50502 15.1026 8.31781C13.8954 8.10826 12.7386 7.97694 11.0301 8.044C9.17024 8.11385 7.57931 8.59722 6.26007 9.42705C4.93803 10.2569 4.263 11.5338 3.91569 13.2521C3.80925 13.7914 3.77564 14.3111 3.75604 14.8084C3.68321 16.4904 4.78678 18.2199 8.00225 18.7704C9.45593 19.019 10.5287 19.3487 11.1981 19.7287C12.1392 20.2652 12.3493 21.4694 12.1448 22.5647C11.9432 23.6627 11.5454 24.5736 10.8872 25.1324C10.229 25.6912 9.03859 26.1914 7.41125 26.1578C4.78678 26.1047 2.60205 25.3951 2.58244 25.3951L2.19312 27.0436C2.19312 27.1358 3.33309 27.6499 4.50949 27.9628C5.68588 28.2757 7.67454 28.5412 9.26547 28.4685C11.4502 28.3651 13.0299 27.6107 14.3352 26.5378C15.6404 25.4649 16.4583 23.808 16.7944 21.4079C16.8476 20.8883 16.8756 20.5418 16.8756 20.3658C16.8756 19.0274 16.5619 18.1836 15.7748 17.5186L15.772 17.513ZM33.4767 14.42L31.9782 23.2688C31.8578 23.537 31.5777 23.8723 31.1351 24.2774C30.6926 24.6826 30.0428 24.8977 29.1857 24.9201C28.7151 24.9201 28.3426 24.7692 28.0653 24.4646C27.788 24.1601 27.6536 23.727 27.6536 23.1598L29.1185 14.4172H22.6651L23.4662 9.54999H20.1891L19.388 14.4172H17.1921L16.912 15.954H19.1079L17.9596 22.8636C17.8923 23.2325 17.8587 23.5761 17.8587 23.8891C17.8587 24.6742 18.136 25.3196 18.6934 25.8281C19.2844 26.3646 20.3319 26.6328 21.8361 26.6328C22.0629 26.6328 22.2674 26.6272 22.4495 26.6161C22.6259 26.6105 22.6679 26.6049 22.738 26.5993L23.0096 24.8754C22.2478 24.8754 21.8164 24.7552 21.556 24.5177C21.3235 24.2746 21.2058 23.7745 21.2058 23.0173L22.3906 15.954H25.5865L24.3485 23.266C24.2981 23.7075 24.2729 23.9617 24.2729 24.0344C24.2729 24.8446 24.5081 25.4705 24.9787 25.9148C25.4493 26.359 26.0991 26.5965 26.9281 26.6328C28.239 26.6328 29.2837 26.4875 30.0624 26.1942C30.841 25.9036 31.432 25.5012 31.6813 25.3056L32.2107 26.5965H33.8661L35.9275 14.4172H33.4851L33.4767 14.42ZM45.4059 9.55279L44.4956 14.9649C43.7113 14.5541 42.7478 14.3474 41.5994 14.3474C40.311 14.3474 39.1878 14.7274 38.2271 15.4846C37.2692 16.2445 36.5662 17.8148 36.1236 20.1953C35.9584 21.0838 35.8771 21.8634 35.8771 22.5339C35.8771 24.1601 36.2496 25.247 36.9975 25.803C37.7425 26.3562 38.7229 26.644 39.9301 26.6691C40.6835 26.6691 41.2941 26.5686 41.7619 26.3646C42.2268 26.1634 42.9271 25.4454 43.0755 25.314L43.5685 26.5965H45.7896L48.6494 9.55279H45.4059ZM42.9971 24.0008C42.9523 24.1014 42.7254 24.2802 42.3165 24.5317C41.9075 24.786 41.437 24.9368 40.902 24.9927C40.0785 24.9927 39.4819 24.7664 39.115 24.3138C38.7453 23.8611 38.552 23.1738 38.5352 22.2517C38.5352 21.6259 38.6024 20.9302 38.7397 20.1618C38.9722 18.7815 39.3419 17.7282 39.846 17.0045C40.3502 16.2809 41.1793 15.9204 42.3333 15.9204C42.9467 15.9679 43.4144 16.0769 43.7337 16.2473C44.053 16.4178 44.2155 16.5407 44.2155 16.6189L42.9971 24.0036V24.0008ZM47.6634 25.3056L48.2432 26.5993H50.624L52.6855 14.42H49.442L47.6662 25.3056H47.6634ZM62.1919 14.8C61.5 14.4983 60.6009 14.3502 59.5002 14.3502C55.845 14.3502 53.649 16.4094 52.9096 20.5278C52.7948 21.3437 52.7387 22.0003 52.7387 22.5004C52.7387 23.9533 53.1169 25.0179 53.8759 25.6968C54.635 26.3758 55.7861 26.725 57.3379 26.7418C58.3322 26.7418 59.2005 26.6189 59.9483 26.3702C60.6962 26.1243 61.3376 25.7415 61.8782 25.2274C62.4188 24.7133 62.8585 24.0651 63.203 23.28C63.5475 22.4976 63.8024 21.5672 63.9733 20.4887C64.1105 19.7203 64.1777 19.0386 64.1777 18.4435C64.1777 17.527 64.0209 16.7642 63.7044 16.1579C63.3907 15.5516 62.8865 15.0962 62.1947 14.7972L62.1919 14.8ZM60.727 20.5641C60.5617 21.5337 60.3937 22.3132 60.22 22.9C60.0464 23.4867 59.7635 23.9869 59.3741 24.4032C58.982 24.8195 58.4442 25.029 57.7552 25.029C56.5508 25.029 55.9514 24.2607 55.9514 22.7267C55.9514 22.2154 56.0186 21.4694 56.1559 20.4943C56.3659 19.1364 56.6852 18.0607 57.1166 17.2672C57.5479 16.4737 58.2622 16.0601 59.2621 16.0294C60.4189 16.0294 60.9987 16.7726 60.9987 18.2618C60.9987 18.8207 60.909 19.589 60.727 20.5669V20.5641ZM79.0199 14.4563L76.4066 19.6533L75.2134 14.4563H71.7318L71.8691 15.6271L69.5023 19.8321L68.6256 14.4563H65.3121L67.5697 26.5881L68.2951 26.5937L72.7458 17.7142L74.9417 26.6077L75.628 26.6021L81.0057 14.4536H79.0227L79.0199 14.4563ZM86.7477 14.3837C85.8682 14.3893 85.0951 14.4871 84.4313 14.6743C83.7675 14.8615 83.2381 15.0654 82.8431 15.2806C82.4482 15.4985 82.2522 15.6243 82.2522 15.6606L81.3419 18.0802C81.6303 17.7282 82.1905 17.2923 83.0224 16.7726C83.8543 16.2529 84.9467 15.9903 86.2967 15.9903C86.8989 15.9903 87.3555 16.1244 87.672 16.3926C87.9857 16.6609 88.1453 16.9906 88.1453 17.3845C88.1453 17.8595 87.91 18.2982 87.4395 18.6977C86.9689 19.0973 86.3079 19.3292 85.4564 19.3934C83.7535 19.5248 82.4342 19.8964 81.4959 20.5111C80.5604 21.123 79.9862 22.045 79.7761 23.2688C79.7313 23.6152 79.7089 23.836 79.7089 23.931C79.7089 24.8307 80.0114 25.4956 80.6192 25.9259C81.227 26.359 82.0001 26.5937 82.944 26.6356C84.182 26.6356 85.0867 26.4708 85.6637 26.1439C86.2407 25.817 86.8261 25.4649 86.9521 25.2442L87.3695 26.5993H89.7811L91.2459 17.8567C91.2908 17.5605 91.3132 17.351 91.3132 17.2308C91.3132 15.3337 89.7923 14.3837 86.7505 14.3837H86.7477ZM87.0614 23.2325C87.0614 23.4001 86.9437 23.632 86.7084 23.9282C86.4732 24.2271 85.9746 24.4814 85.2127 24.6965C84.787 24.8167 84.4033 24.8754 84.0644 24.8754C82.9468 24.8754 82.3866 24.4618 82.3866 23.6348C82.4482 22.9391 82.7507 22.439 83.2941 22.1344C83.8347 21.8298 84.5937 21.6147 85.5629 21.4834C86.0978 21.4191 86.4928 21.2878 86.7897 21.1677C87.0866 21.0447 87.2994 20.9497 87.4675 20.7709L87.0614 23.2325ZM98.8225 14.3837C97.5228 14.3837 96.4501 14.5905 95.607 15.0012C94.7639 15.4119 94.0945 16.035 93.5987 16.8704C93.103 17.7058 92.7164 18.7787 92.4447 20.0892C92.2347 21.1006 92.131 21.9779 92.131 22.7239C92.131 24.1182 92.5148 25.1157 93.2794 25.7248C94.0469 26.3311 95.3101 26.6356 97.0775 26.6356C98.0998 26.6049 98.9485 26.5183 99.6235 26.3758C100.299 26.2333 100.637 26.1383 100.637 26.0908L101.2 24.0735C101.2 24.1098 101.024 24.2076 100.668 24.3724C100.313 24.5373 99.8504 24.6854 99.279 24.8223C98.7076 24.9592 98.0466 25.029 97.2904 25.029C96.1028 24.9396 95.5118 24.0623 95.5118 22.3942C95.5118 22.0003 95.593 21.2347 95.7583 20.0892C95.9739 18.8877 96.3296 17.9042 96.8226 17.1386C97.3156 16.3731 98.1222 15.9903 99.2398 15.9903C100.091 16.007 101.828 16.3367 102.021 16.4513L102.346 14.9285C102.08 14.8447 101.629 14.7385 100.996 14.6072C100.363 14.4759 99.6375 14.4005 98.8197 14.3837H98.8225ZM117.687 15.0235C116.922 14.5737 115.967 14.3502 114.821 14.3502C114.362 14.3753 113.928 14.4536 113.519 14.5905C113.11 14.7274 112.74 14.8782 112.413 15.0459C112.09 15.2079 111.928 15.289 111.928 15.2946L112.107 14.42H108.864L105.97 31.5001H109.214L110.149 26.0545C110.303 26.1606 110.628 26.2975 111.13 26.4596C111.628 26.6244 112.267 26.7055 113.046 26.7055C113.919 26.6691 114.69 26.5127 115.354 26.2361C116.017 25.9595 116.639 25.3643 117.222 24.4535C117.804 23.5426 118.261 22.2098 118.597 20.4524C118.757 19.6365 118.835 18.8821 118.835 18.1836C118.835 16.5239 118.454 15.4678 117.69 15.018L117.687 15.0235ZM115.973 20.5278C115.69 21.9919 115.284 23.1263 114.76 23.931C114.236 24.7357 113.418 25.1352 112.312 25.1352C111.738 25.0933 111.298 24.9899 110.993 24.8279C110.687 24.663 110.488 24.5345 110.396 24.4395L111.656 17.0185C111.656 16.9542 111.872 16.7866 112.309 16.5184C112.743 16.2501 113.222 16.0881 113.743 16.0266C114.639 16.0266 115.272 16.2054 115.636 16.5631C116.003 16.9207 116.185 17.5214 116.185 18.368C116.185 19.142 116.115 19.8628 115.973 20.5278ZM122.031 9.55558L119.25 25.3448L119.922 26.5546L122.146 26.5993L125.006 9.55558H122.031ZM103.99 23.7745C103.217 23.7745 102.593 24.4004 102.593 25.1687C102.593 25.9371 103.22 26.563 103.99 26.563C104.76 26.563 105.388 25.9399 105.388 25.1687C105.388 24.3976 104.763 23.7745 103.99 23.7745ZM51.4895 13.0845C52.5875 13.0845 53.4782 12.196 53.4782 11.1007C53.4782 10.0054 52.5875 9.11691 51.4895 9.11691C50.3916 9.11691 49.5009 10.0054 49.5009 11.1007C49.5009 12.196 50.3916 13.0845 51.4895 13.0845Z" fill="white"/>
<path d="M4.41147 9.16994C4.41147 9.16994 4.78959 8.51055 6.13964 7.76733C7.73057 6.8872 9.71923 6.605 10.8256 6.54074C13.1476 6.40383 14.0999 6.74191 14.0999 6.74191L13.1476 3.48405L16.9652 1.69027L8.18152 0.5L0 4.59049L3.86809 4.99283L4.41147 9.17274V9.16994Z" fill="white"/>
</g>
<defs>
<clipPath id="clip0_240_3428">
<rect width="125" height="31" fill="white" transform="translate(0 0.5)"/>
</clipPath>
</defs>
</svg>
