<svg width="16" height="16" viewBox="0 0 16 16" fill="none" xmlns="http://www.w3.org/2000/svg">
<g id="Group 5">
<g id="&#240;&#159;&#166;&#134; icon &#34;arrow ios forward&#34;">
<path id="Vector" d="M6.66784 12.4767C6.51207 12.477 6.36111 12.4236 6.24117 12.3257C6.17367 12.2706 6.11787 12.203 6.07697 12.1266C6.03606 12.0502 6.01087 11.9667 6.00282 11.8807C5.99477 11.7948 6.00402 11.7081 6.03005 11.6256C6.05608 11.5432 6.09837 11.4666 6.15451 11.4003L9.14117 7.88246L6.26117 4.35803C6.2058 4.2909 6.16444 4.21365 6.13949 4.13073C6.11453 4.04781 6.10647 3.96086 6.11576 3.87486C6.12506 3.78886 6.15152 3.70552 6.19364 3.62963C6.23575 3.55374 6.29269 3.48678 6.36117 3.43262C6.43015 3.37287 6.51093 3.32781 6.59844 3.30025C6.68594 3.27269 6.77829 3.26324 6.86969 3.27248C6.96108 3.28172 7.04955 3.30947 7.12954 3.35397C7.20953 3.39847 7.27931 3.45876 7.33451 3.53107L10.5545 7.46898C10.6526 7.58641 10.7062 7.73372 10.7062 7.88574C10.7062 8.03776 10.6526 8.18506 10.5545 8.3025L7.22117 12.2404C7.1543 12.3198 7.06934 12.3826 6.9732 12.4237C6.87706 12.4647 6.77244 12.4829 6.66784 12.4767Z" fill="#008ACF"/>
</g>
</g>
</svg>
