<svg width="28" height="20" viewBox="0 0 28 20" fill="none" xmlns="http://www.w3.org/2000/svg">
<path d="M5.226 20L19.2373 20C19.3616 20 19.4633 19.8983 19.4633 19.774V18.1921C19.4633 18.0678 19.3616 17.9661 19.2373 17.9661H5.226C5.1017 17.9661 5.00001 18.0678 5.00001 18.1921L5.00001 19.774C5.00001 19.8983 5.1017 20 5.226 20ZM5.226 8.0226L19.2373 8.0226C19.3616 8.0226 19.4633 7.92091 19.4633 7.79661V6.21469C19.4633 6.0904 19.3616 5.9887 19.2373 5.9887L5.226 5.9887C5.1017 5.9887 5.00001 6.0904 5.00001 6.21469L5.00001 7.79661C5.00001 7.9209 5.1017 8.0226 5.226 8.0226ZM5.226 2.0339L27.3729 2.0339C27.4972 2.0339 27.5989 1.93221 27.5989 1.80791V0.225991C27.5989 0.101697 27.4972 1.94701e-06 27.3729 1.93614e-06L5.226 0C5.1017 -1.08661e-08 5.00001 0.101695 5.00001 0.225989V1.80791C5.00001 1.9322 5.1017 2.0339 5.226 2.0339ZM5.226 14.0113L27.3729 14.0113C27.4972 14.0113 27.5989 13.9096 27.5989 13.7853V12.2034C27.5989 12.0791 27.4972 11.9774 27.3729 11.9774L5.226 11.9774C5.1017 11.9774 5.00001 12.0791 5.00001 12.2034L5.00001 13.7853C5.00001 13.9096 5.1017 14.0113 5.226 14.0113Z" fill="black"/>
<path d="M22.3729 20L8.36158 20C8.23729 20 8.13559 19.8983 8.13559 19.774V18.1921C8.13559 18.0678 8.23729 17.9661 8.36158 17.9661L22.3729 17.9661C22.4972 17.9661 22.5989 18.0678 22.5989 18.1921V19.774C22.5989 19.8983 22.4972 20 22.3729 20ZM22.3729 8.0226L8.36158 8.0226C8.23729 8.0226 8.13559 7.92091 8.13559 7.79661L8.13559 6.21469C8.13559 6.0904 8.23729 5.9887 8.36158 5.9887L22.3729 5.9887C22.4972 5.9887 22.5989 6.0904 22.5989 6.21469V7.79661C22.5989 7.92091 22.4972 8.0226 22.3729 8.0226ZM22.3729 2.0339L0.22599 2.0339C0.101696 2.0339 1.03623e-06 1.93221 1.0471e-06 1.80791L1.18539e-06 0.225991C1.19626e-06 0.101697 0.101696 1.96479e-06 0.22599 1.97566e-06L22.3729 3.9118e-06C22.4972 3.92266e-06 22.5989 0.101699 22.5989 0.225993V1.80791C22.5989 1.93221 22.4972 2.0339 22.3729 2.0339ZM22.3729 14.0113L0.225989 14.0113C0.101695 14.0113 -1.08661e-08 13.9096 0 13.7853L1.38296e-07 12.2034C1.49162e-07 12.0791 0.101695 11.9774 0.225989 11.9774L22.3729 11.9774C22.4972 11.9774 22.5989 12.0791 22.5989 12.2034V13.7853C22.5989 13.9096 22.4972 14.0113 22.3729 14.0113Z" fill="black"/>
</svg>
