<svg width="23" height="20" viewBox="0 0 23 20" fill="none" xmlns="http://www.w3.org/2000/svg">
<path d="M22.3729 20L8.36158 20C8.23729 20 8.13559 19.8983 8.13559 19.774L8.13559 18.1921C8.13559 18.0678 8.23729 17.9661 8.36158 17.9661L22.3729 17.9661C22.4972 17.9661 22.5989 18.0678 22.5989 18.1921L22.5989 19.774C22.5989 19.8983 22.4972 20 22.3729 20ZM22.3729 8.0226L8.36158 8.0226C8.23729 8.0226 8.13559 7.9209 8.13559 7.79661L8.13559 6.21469C8.13559 6.0904 8.23729 5.9887 8.36158 5.9887L22.3729 5.9887C22.4972 5.9887 22.5989 6.0904 22.5989 6.21469L22.5989 7.79661C22.5989 7.92091 22.4972 8.0226 22.3729 8.0226ZM22.3729 2.0339L0.22599 2.0339C0.101696 2.0339 1.57954e-06 1.9322 1.5904e-06 1.80791L1.7287e-06 0.225989C1.73957e-06 0.101695 0.101697 -2.83625e-08 0.22599 -1.74963e-08L22.3729 1.91865e-06C22.4972 1.92951e-06 22.5989 0.101697 22.5989 0.225991L22.5989 1.80791C22.5989 1.93221 22.4972 2.0339 22.3729 2.0339ZM22.3729 14.0113L0.225989 14.0113C0.101695 14.0113 5.32439e-07 13.9096 5.43305e-07 13.7853L6.81601e-07 12.2034C6.92467e-07 12.0791 0.101696 11.9774 0.225989 11.9774L22.3729 11.9774C22.4972 11.9774 22.5989 12.0791 22.5989 12.2034L22.5989 13.7853C22.5989 13.9096 22.4972 14.0113 22.3729 14.0113Z" fill="black"/>
</svg>
