<svg width="23" height="20" viewBox="0 0 23 20" fill="none" xmlns="http://www.w3.org/2000/svg">
<path d="M0.225996 20L14.2373 20C14.3616 20 14.4633 19.8983 14.4633 19.774L14.4633 18.1921C14.4633 18.0678 14.3616 17.9661 14.2373 17.9661L0.225996 17.9661C0.101702 17.9661 7.02345e-06 18.0678 7.01259e-06 18.1921L6.87429e-06 19.774C6.86342e-06 19.8983 0.101702 20 0.225996 20ZM0.225997 8.0226L14.2373 8.0226C14.3616 8.0226 14.4633 7.9209 14.4633 7.79661L14.4633 6.21469C14.4633 6.09039 14.3616 5.9887 14.2373 5.9887L0.225997 5.9887C0.101703 5.9887 8.07055e-06 6.09039 8.05968e-06 6.21469L7.92139e-06 7.79661C7.91052e-06 7.9209 0.101703 8.0226 0.225997 8.0226ZM0.225997 2.0339L22.3729 2.0339C22.4972 2.0339 22.5989 1.9322 22.5989 1.80791L22.5989 0.225989C22.5989 0.101695 22.4972 -4.61434e-08 22.3729 -5.70095e-08L0.225997 -1.99315e-06C0.101704 -2.00402e-06 8.5941e-06 0.101693 8.58323e-06 0.225987L8.44494e-06 1.80791C8.43407e-06 1.9322 0.101703 2.0339 0.225997 2.0339ZM0.225996 14.0113L22.3729 14.0113C22.4972 14.0113 22.5989 13.9096 22.5989 13.7853L22.5989 12.2034C22.5989 12.0791 22.4972 11.9774 22.3729 11.9774L0.225996 11.9774C0.101702 11.9774 7.547e-06 12.0791 7.53614e-06 12.2034L7.39784e-06 13.7853C7.38697e-06 13.9096 0.101702 14.0113 0.225996 14.0113Z" fill="black"/>
</svg>
