<svg width="15" height="20" viewBox="0 0 15 20" fill="none" xmlns="http://www.w3.org/2000/svg">
<path d="M6.21691 0C8.88131 0 10.8796 0.333049 12.2118 1.11016C13.655 1.88728 14.3211 3.21947 14.3211 5.10675C14.3211 6.21691 13.9881 7.21606 13.544 7.99318C13.2923 8.37278 12.9653 8.69671 12.5834 8.94495C12.2015 9.19318 11.7728 9.36044 11.3237 9.43639C11.9583 9.58463 12.5603 9.84803 13.0999 10.2135C13.544 10.5466 13.9881 11.1016 14.3211 11.6567C14.6685 12.4609 14.8207 13.3358 14.7652 14.2101C14.8044 15.0121 14.654 15.8121 14.3261 16.5451C13.9981 17.2781 13.502 17.9234 12.8779 18.4287C11.2975 19.5574 9.37619 20.1064 7.43809 19.9829H0V0H6.21691ZM6.66098 7.88216C7.88216 7.88216 8.77029 7.77114 9.21436 7.32708C9.76944 6.99403 9.99147 6.32793 9.99147 5.66183C9.99147 4.88472 9.65842 4.32964 9.10334 3.99659C8.54826 3.66354 7.66013 3.44151 6.43895 3.44151H4.21862V7.88216H6.66098ZM4.21862 11.2127V16.6524H6.99403C8.21521 16.6524 9.21436 16.3194 9.65842 15.8753C10.2135 15.3203 10.4355 14.7652 10.4355 13.877C10.4488 13.5415 10.3857 13.2073 10.2511 12.8996C10.1165 12.5919 9.91385 12.3188 9.65842 12.1008C9.10334 11.6567 8.21521 11.4347 6.88301 11.4347H4.1076L4.21862 11.2127Z" fill="black"/>
</svg>
