<svg width="26" height="20" viewBox="0 0 26 20" fill="none" xmlns="http://www.w3.org/2000/svg">
<path d="M2.27273 4.54545C2.87549 4.54545 3.45357 4.30601 3.87979 3.87979C4.30601 3.45357 4.54545 2.87549 4.54545 2.27273C4.54545 1.66996 4.30601 1.09189 3.87979 0.665666C3.45357 0.239447 2.87549 0 2.27273 0C1.66996 0 1.09189 0.239447 0.665666 0.665666C0.239447 1.09189 0 1.66996 0 2.27273C0 2.87549 0.239447 3.45357 0.665666 3.87979C1.09189 4.30601 1.66996 4.54545 2.27273 4.54545ZM2.27273 12.2727C2.87549 12.2727 3.45357 12.0333 3.87979 11.6071C4.30601 11.1808 4.54545 10.6028 4.54545 10C4.54545 9.39724 4.30601 8.81916 3.87979 8.39294C3.45357 7.96672 2.87549 7.72727 2.27273 7.72727C1.66996 7.72727 1.09189 7.96672 0.665666 8.39294C0.239447 8.81916 0 9.39724 0 10C0 10.6028 0.239447 11.1808 0.665666 11.6071C1.09189 12.0333 1.66996 12.2727 2.27273 12.2727ZM4.54545 17.7273C4.54545 18.33 4.30601 18.9081 3.87979 19.3343C3.45357 19.7606 2.87549 20 2.27273 20C1.66996 20 1.09189 19.7606 0.665666 19.3343C0.239447 18.9081 0 18.33 0 17.7273C0 17.1245 0.239447 16.5464 0.665666 16.1202C1.09189 15.694 1.66996 15.4545 2.27273 15.4545C2.87549 15.4545 3.45357 15.694 3.87979 16.1202C4.30601 16.5464 4.54545 17.1245 4.54545 17.7273ZM8.63636 0.909091C8.27471 0.909091 7.92786 1.05276 7.67213 1.30849C7.4164 1.56422 7.27273 1.91107 7.27273 2.27273C7.27273 2.63439 7.4164 2.98123 7.67213 3.23696C7.92786 3.4927 8.27471 3.63636 8.63636 3.63636H24.0909C24.4526 3.63636 24.7994 3.4927 25.0551 3.23696C25.3109 2.98123 25.4545 2.63439 25.4545 2.27273C25.4545 1.91107 25.3109 1.56422 25.0551 1.30849C24.7994 1.05276 24.4526 0.909091 24.0909 0.909091H8.63636ZM7.27273 10C7.27273 9.63834 7.4164 9.2915 7.67213 9.03576C7.92786 8.78003 8.27471 8.63636 8.63636 8.63636H24.0909C24.4526 8.63636 24.7994 8.78003 25.0551 9.03576C25.3109 9.2915 25.4545 9.63834 25.4545 10C25.4545 10.3617 25.3109 10.7085 25.0551 10.9642C24.7994 11.22 24.4526 11.3636 24.0909 11.3636H8.63636C8.27471 11.3636 7.92786 11.22 7.67213 10.9642C7.4164 10.7085 7.27273 10.3617 7.27273 10ZM8.63636 16.3636C8.27471 16.3636 7.92786 16.5073 7.67213 16.763C7.4164 17.0188 7.27273 17.3656 7.27273 17.7273C7.27273 18.0889 7.4164 18.4358 7.67213 18.6915C7.92786 18.9472 8.27471 19.0909 8.63636 19.0909H24.0909C24.4526 19.0909 24.7994 18.9472 25.0551 18.6915C25.3109 18.4358 25.4545 18.0889 25.4545 17.7273C25.4545 17.3656 25.3109 17.0188 25.0551 16.763C24.7994 16.5073 24.4526 16.3636 24.0909 16.3636H8.63636Z" fill="black"/>
</svg>
