<svg width="25" height="20" viewBox="0 0 25 20" fill="none" xmlns="http://www.w3.org/2000/svg">
<path d="M3.33333 8H10V2C10 1.46957 10.1756 0.960859 10.4882 0.585786C10.8007 0.210714 11.2246 0 11.6667 0C12.1087 0 12.5326 0.210714 12.8452 0.585786C13.1577 0.960859 13.3333 1.46957 13.3333 2V18C13.3333 18.5304 13.1577 19.0391 12.8452 19.4142C12.5326 19.7893 12.1087 20 11.6667 20C11.2246 20 10.8007 19.7893 10.4882 19.4142C10.1756 19.0391 10 18.5304 10 18V12H3.33333V18C3.33333 18.5304 3.15774 19.0391 2.84518 19.4142C2.53262 19.7893 2.10869 20 1.66667 20C1.22464 20 0.800716 19.7893 0.488155 19.4142C0.175595 19.0391 0 18.5304 0 18V2C0 1.46957 0.175595 0.960859 0.488155 0.585786C0.800716 0.210714 1.22464 0 1.66667 0C2.10869 0 2.53262 0.210714 2.84518 0.585786C3.15774 0.960859 3.33333 1.46957 3.33333 2V8ZM21.06 17.48H16.6667V14.604L16.7667 14.208L21.29 5.988H24.1017V13.892H24.9983V17.48H24.1017V20H21.06V17.48ZM21.3167 14.914V11.548L19.4833 14.914H21.3167Z" fill="black"/>
</svg>
