<svg width="30" height="20" viewBox="0 0 30 20" fill="none" xmlns="http://www.w3.org/2000/svg">
<path d="M4 8H12V2C12 1.46957 12.2107 0.960859 12.5858 0.585786C12.9609 0.210714 13.4696 0 14 0C14.5304 0 15.0391 0.210714 15.4142 0.585786C15.7893 0.960859 16 1.46957 16 2V18C16 18.5304 15.7893 19.0391 15.4142 19.4142C15.0391 19.7893 14.5304 20 14 20C13.4696 20 12.9609 19.7893 12.5858 19.4142C12.2107 19.0391 12 18.5304 12 18V12H4V18C4 18.5304 3.78929 19.0391 3.41421 19.4142C3.03914 19.7893 2.53043 20 2 20C1.46957 20 0.960859 19.7893 0.585786 19.4142C0.210714 19.0391 0 18.5304 0 18V2C0 1.46957 0.210714 0.960859 0.585786 0.585786C0.960859 0.210714 1.46957 0 2 0C2.53043 0 3.03914 0.210714 3.41421 0.585786C3.78929 0.960859 4 1.46957 4 2V8ZM29.76 16.704V20H20V17.972L20.2 17.48L23.77 13.654C24.63 12.784 25.356 12.114 25.616 11.632C25.864 11.172 25.98 10.778 25.98 10.458C25.98 10.178 25.9 9.974 25.726 9.804C25.6326 9.71586 25.5221 9.64784 25.4014 9.60415C25.2806 9.56046 25.1522 9.54203 25.024 9.55C24.8894 9.54525 24.7555 9.57124 24.6325 9.626C24.5095 9.68076 24.4005 9.76284 24.314 9.866C24.104 10.1 23.984 10.442 23.968 10.916L23.944 11.592H20.296L20.328 10.86C20.396 9.39 20.872 8.2 21.764 7.32C22.656 6.44 23.804 6 25.17 6C26.018 6 26.78 6.182 27.45 6.55C28.1241 6.92517 28.6818 7.47874 29.062 8.15C29.458 8.836 29.662 9.55 29.662 10.276C29.662 11.108 29.202 11.974 28.75 12.89C28.306 13.79 27.682 14.642 26.622 16L26.39 16.246L25.882 16.704H29.758H29.76Z" fill="black"/>
</svg>
