<svg width="25" height="20" viewBox="0 0 25 20" fill="none" xmlns="http://www.w3.org/2000/svg">
<path d="M3.33333 7.97925H10V1.99481C10 1.46576 10.1756 0.958367 10.4882 0.584267C10.8007 0.210167 11.2246 0 11.6667 0C12.1087 0 12.5326 0.210167 12.8452 0.584267C13.1577 0.958367 13.3333 1.46576 13.3333 1.99481V17.9533C13.3333 18.4824 13.1577 18.9898 12.8452 19.3639C12.5326 19.738 12.1087 19.9481 11.6667 19.9481C11.2246 19.9481 10.8007 19.738 10.4882 19.3639C10.1756 18.9898 10 18.4824 10 17.9533V11.9689H3.33333V17.9533C3.33333 18.4824 3.15774 18.9898 2.84518 19.3639C2.53262 19.738 2.10869 19.9481 1.66667 19.9481C1.22464 19.9481 0.800716 19.738 0.488155 19.3639C0.175595 18.9898 0 18.4824 0 17.9533V1.99481C0 1.46576 0.175595 0.958367 0.488155 0.584267C0.800716 0.210167 1.22464 0 1.66667 0C2.10869 0 2.53262 0.210167 2.84518 0.584267C3.15774 0.958367 3.33333 1.46576 3.33333 1.99481V7.97925ZM24.0883 12.9922L24.16 13.1019C24.5833 13.7682 24.7933 14.5542 24.7933 15.4399C24.7933 16.7106 24.395 17.8077 23.615 18.6874C22.8383 19.5631 21.8483 20 20.6767 20C19.5583 20 18.6183 19.5831 17.8917 18.7493C17.165 17.9154 16.77 16.7884 16.7033 15.4059L16.6667 14.6679H19.6717L19.75 15.2563C19.8133 15.7311 19.9367 16.0483 20.1083 16.2338C20.275 16.4153 20.4917 16.5071 20.7783 16.5071C20.9075 16.5147 21.0365 16.4905 21.1575 16.436C21.2785 16.3814 21.3889 16.2976 21.4817 16.1899C21.568 16.0932 21.6361 15.9755 21.6815 15.8448C21.7269 15.7141 21.7486 15.5734 21.745 15.4319C21.745 15.1067 21.6333 14.8434 21.3717 14.596C21.0883 14.3287 20.6417 14.1771 20.0133 14.1672L19.4383 14.1592V11.8253L20.0133 11.8173C20.6417 11.8093 21.09 11.6577 21.3717 11.3884C21.6333 11.141 21.745 10.8797 21.745 10.5546C21.7488 10.4127 21.7273 10.2716 21.6819 10.1405C21.6365 10.0095 21.5682 9.89151 21.4817 9.79453C21.3889 9.6868 21.2785 9.60305 21.1575 9.54849C21.0365 9.49393 20.9075 9.46971 20.7783 9.47736C20.5337 9.46188 20.2935 9.56056 20.1083 9.75264C19.9367 9.93617 19.8133 10.2533 19.75 10.7281L19.6717 11.3166H16.6667L16.7033 10.5785C16.77 9.19609 17.165 8.06902 17.8917 7.23718C18.6183 6.40136 19.5583 5.98444 20.675 5.98444C21.8483 5.98444 22.8383 6.4233 23.615 7.29703C24.395 8.17674 24.795 9.27389 24.795 10.5466C24.8076 11.436 24.5573 12.3022 24.0883 12.9922Z" fill="black"/>
</svg>
