<svg width="22" height="23" viewBox="0 0 22 23" fill="none" xmlns="http://www.w3.org/2000/svg">
<path d="M3.0311 6.25981V1.6665L1.5 2.68724M4.5622 6.25981H1.5M4.5622 13.4049H1.5C1.5 13.4049 5.07257 11.3635 4.05183 9.83237C3.0311 8.30127 1.5 9.83237 1.5 9.83237M1.5 17.2327C1.5 17.2327 2.52073 15.7016 4.05183 16.7223C5.58293 17.7431 4.05183 19.019 4.05183 19.019M4.05183 19.019C4.05183 19.019 5.58293 20.2949 4.05183 21.3156C2.52073 22.3364 1.5 20.8053 1.5 20.8053M4.05183 19.019H3.0311M9.1555 11.8738H20.3836M9.1555 19.019H20.3836M9.1555 4.7287H20.3836" stroke="black" stroke-width="1.66667" stroke-linecap="round" stroke-linejoin="round"/>
</svg>
