<svg width="29" height="20" viewBox="0 0 29 20" fill="none" xmlns="http://www.w3.org/2000/svg">
<path d="M27.5 0H10C7.34784 0 4.8043 0.766232 2.92893 2.13013C1.05357 3.49403 0 5.34388 0 7.27273C0 9.20157 1.05357 11.0514 2.92893 12.4153C4.8043 13.7792 7.34784 14.5455 10 14.5455H16.25V19.0909C16.25 19.332 16.3817 19.5632 16.6161 19.7337C16.8505 19.9042 17.1685 20 17.5 20C17.8315 20 18.1495 19.9042 18.3839 19.7337C18.6183 19.5632 18.75 19.332 18.75 19.0909V1.81818H22.5V19.0909C22.5 19.332 22.6317 19.5632 22.8661 19.7337C23.1005 19.9042 23.4185 20 23.75 20C24.0815 20 24.3995 19.9042 24.6339 19.7337C24.8683 19.5632 25 19.332 25 19.0909V1.81818H27.5C27.8315 1.81818 28.1495 1.7224 28.3839 1.55192C28.6183 1.38143 28.75 1.1502 28.75 0.909091C28.75 0.667985 28.6183 0.436754 28.3839 0.266267C28.1495 0.0957791 27.8315 0 27.5 0ZM16.25 12.7273H10C8.01088 12.7273 6.10322 12.1526 4.6967 11.1297C3.29018 10.1067 2.5 8.71936 2.5 7.27273C2.5 5.82609 3.29018 4.43871 4.6967 3.41578C6.10322 2.39286 8.01088 1.81818 10 1.81818H16.25V12.7273Z" fill="black"/>
</svg>
