<svg width="22" height="20" viewBox="0 0 22 20" fill="none" xmlns="http://www.w3.org/2000/svg">
<path d="M7.86667 20C5.71111 20 3.86089 19.3 2.316 17.9C0.771112 16.5 -0.000888122 14.7556 7.66724e-07 12.6667C7.66724e-07 10.5778 0.772445 8.83333 2.31733 7.43333C3.86222 6.03333 5.712 5.33333 7.86667 5.33333H16.2667L12.8 1.86667L14.6667 0L21.3333 6.66667L14.6667 13.3333L12.8 11.4667L16.2667 8H7.86667C6.46667 8 5.24978 8.44444 4.216 9.33333C3.18222 10.2222 2.66578 11.3333 2.66667 12.6667C2.66667 14 3.18356 15.1111 4.21733 16C5.25111 16.8889 6.46756 17.3333 7.86667 17.3333H17.3333V20H7.86667Z" fill="black"/>
</svg>
