<svg width="18" height="23" viewBox="0 0 18 23" fill="none" xmlns="http://www.w3.org/2000/svg">
<path d="M14.35 22.3236H0.75C0.34 22.3236 0 21.9836 0 21.5736V3.46362C0 3.05362 0.34 2.71362 0.75 2.71362H9.25C9.66 2.71362 10 3.05362 10 3.46362C10 3.87362 9.66 4.21362 9.25 4.21362H1.5V20.8336H13.6V10.2636C13.6 9.85362 13.94 9.51362 14.35 9.51362C14.76 9.51362 15.1 9.85362 15.1 10.2636V21.5836C15.1 21.9936 14.76 22.3336 14.35 22.3336V22.3236Z" fill="#fff"/>
<path d="M5.86002 15.4336C5.60002 15.4336 5.33002 15.3436 5.12002 15.1636C4.76002 14.8736 4.61002 14.4236 4.71002 13.9736L5.54002 10.4636C5.56002 10.3636 5.61001 10.2636 5.68001 10.1836L13.11 1.00363C13.56 0.443633 14.21 0.093633 14.93 0.013633C15.65 -0.056367 16.35 0.143633 16.91 0.603633C17.47 1.05363 17.82 1.70363 17.9 2.42363C17.98 3.14363 17.77 3.84363 17.31 4.40363L9.88002 13.5836C9.81002 13.6636 9.73002 13.7336 9.63002 13.7736L6.37002 15.3136C6.21002 15.3936 6.03002 15.4236 5.86002 15.4236V15.4336ZM6.86002 10.9436L6.17001 13.8636L8.88002 12.5836L16.21 3.52363C16.43 3.25363 16.53 2.91363 16.49 2.56363C16.45 2.21363 16.28 1.90363 16.01 1.68363C15.74 1.46363 15.4 1.36363 15.05 1.40363C14.7 1.44363 14.39 1.61363 14.17 1.88363L6.84001 10.9436H6.86002Z" fill="#fff"/>
</svg>
