<svg width="22" height="20" viewBox="0 0 22 20" fill="none" xmlns="http://www.w3.org/2000/svg">
<path d="M4 20V17.3333H13.4667C14.8667 17.3333 16.0836 16.8889 17.1173 16C18.1511 15.1111 18.6676 14 18.6667 12.6667C18.6667 11.3333 18.1498 10.2222 17.116 9.33333C16.0822 8.44444 14.8658 8 13.4667 8H5.06667L8.53333 11.4667L6.66667 13.3333L0 6.66667L6.66667 0L8.53333 1.86667L5.06667 5.33333H13.4667C15.6222 5.33333 17.4724 6.03333 19.0173 7.43333C20.5622 8.83333 21.3342 10.5778 21.3333 12.6667C21.3333 14.7556 20.5609 16.5 19.016 17.9C17.4711 19.3 15.6213 20 13.4667 20H4Z" fill="black"/>
</svg>
