<svg width="8" height="15" viewBox="0 0 8 15" fill="none" xmlns="http://www.w3.org/2000/svg">
<path d="M1.00176 14.5136C0.768108 14.5141 0.541672 14.4327 0.36176 14.2836C0.260501 14.1997 0.1768 14.0966 0.115448 13.9802C0.0540956 13.8639 0.0162993 13.7366 0.00422342 13.6056C-0.00785244 13.4746 0.00602958 13.3425 0.0450741 13.2169C0.0841185 13.0913 0.147558 12.9747 0.23176 12.8736L4.71176 7.51361L0.39176 2.14361C0.308694 2.04132 0.246663 1.92363 0.209231 1.79729C0.171799 1.67095 0.159705 1.53846 0.173645 1.40743C0.187584 1.2764 0.227281 1.14942 0.290454 1.03378C0.353628 0.918147 0.439033 0.816135 0.54176 0.733612C0.645226 0.642576 0.766392 0.573908 0.897654 0.531919C1.02892 0.48993 1.16744 0.475527 1.30453 0.489611C1.44163 0.503696 1.57433 0.545966 1.69431 0.613768C1.81429 0.68157 1.91897 0.77344 2.00176 0.883612L6.83176 6.88361C6.97884 7.06255 7.05925 7.28699 7.05925 7.51861C7.05925 7.75024 6.97884 7.97468 6.83176 8.15361L1.83176 14.1536C1.73144 14.2746 1.60401 14.3703 1.4598 14.4328C1.31559 14.4954 1.15867 14.5231 1.00176 14.5136Z" fill="white"/>
</svg>
