 <svg width="16" height="16" viewBox="0 0 16 16" fill="none" xmlns="http://www.w3.org/2000/svg">
    <path
      d="M6.66784 12.6668C6.51207 12.6671 6.36111 12.6128 6.24117 12.5135C6.17367 12.4575 6.11787 12.3888 6.07697 12.3112C6.03606 12.2336 6.01087 12.1488 6.00282 12.0614C5.99477 11.9741 6.00402 11.8861 6.03005 11.8023C6.05608 11.7186 6.09837 11.6408 6.15451 11.5735L9.14117 8.00012L6.26117 4.42012C6.2058 4.35193 6.16444 4.27347 6.13949 4.18924C6.11453 4.10501 6.10647 4.01669 6.11576 3.92933C6.12506 3.84198 6.15152 3.75733 6.19364 3.68024C6.23575 3.60315 6.29269 3.53514 6.36117 3.48012C6.43015 3.41943 6.51093 3.37365 6.59844 3.34566C6.68594 3.31767 6.77829 3.30807 6.86969 3.31746C6.96108 3.32685 7.04955 3.35503 7.12954 3.40023C7.20953 3.44543 7.27931 3.50667 7.33451 3.58012L10.5545 7.58012C10.6526 7.69941 10.7062 7.84904 10.7062 8.00346C10.7062 8.15787 10.6526 8.3075 10.5545 8.42679L7.22117 12.4268C7.15429 12.5075 7.06934 12.5712 6.9732 12.6129C6.87706 12.6546 6.77244 12.6731 6.66784 12.6668Z"
      fill="#008ACF"
    />
</svg>
