<svg width="34" height="34" viewBox="0 0 34 34" fill="none" xmlns="http://www.w3.org/2000/svg">
  <circle cx="17" cy="17" r="16" transform="rotate(-90 17 17)" fill="white"/>
  <path d="M24.0019 19.0002C24.0023 19.2338 23.921 19.4603 23.7719 19.6402C23.6879 19.7415 23.5848 19.8252 23.4685 19.8865C23.3521 19.9479 23.2248 19.9857 23.0939 19.9977C22.9629 20.0098 22.8308 19.9959 22.7052 19.9569C22.5796 19.9178 22.4629 19.8544 22.3619 19.7702L17.0019 15.2902L11.6319 19.6102C11.5296 19.6933 11.4119 19.7553 11.2856 19.7927C11.1592 19.8302 11.0267 19.8422 10.8957 19.8283C10.7647 19.8144 10.6377 19.7747 10.5221 19.7115C10.4064 19.6483 10.3044 19.5629 10.2219 19.4602C10.1309 19.3567 10.0622 19.2356 10.0202 19.1043C9.97821 18.973 9.96381 18.8345 9.97789 18.6974C9.99198 18.5603 10.0342 18.4276 10.102 18.3076C10.1699 18.1877 10.2617 18.083 10.3719 18.0002L16.3719 13.1702C16.5508 13.0231 16.7753 12.9427 17.0069 12.9427C17.2385 12.9427 17.463 13.0231 17.6419 13.1702L23.6419 18.1702C23.7629 18.2705 23.8586 18.3979 23.9211 18.5422C23.9837 18.6864 24.0113 18.8433 24.0019 19.0002Z" fill="#008ACF"/>
  <rect x="0.5" y="33.5" width="33" height="33" rx="16.5" transform="rotate(-90 0.5 33.5)" stroke="#008ACF"/>
</svg>